<?xml version="1.0" encoding="UTF-8"?>
<svg version="1.1" xmlns="http://www.w3.org/2000/svg" width="1536" height="1024">
<path d="M0 0 C506.88 0 1013.76 0 1536 0 C1536 337.92 1536 675.84 1536 1024 C1029.12 1024 522.24 1024 0 1024 C0 686.08 0 348.16 0 0 Z " fill="#000000" transform="translate(0,0)"/>
<path d="M0 0 C0.13924205 12.62203385 0.24574438 25.24388389 0.31087303 37.86653042 C0.34213744 43.72827288 0.38452207 49.58948847 0.45263672 55.45092773 C0.51800192 61.11142695 0.55374281 66.77142054 0.56926346 72.43226814 C0.58031889 74.58800271 0.60190793 76.74371072 0.63438034 78.89922905 C0.67817099 81.92747888 0.68392456 84.9536604 0.68115234 87.98217773 C0.702724 88.86619263 0.72429565 89.75020752 0.746521 90.66101074 C0.68660975 96.74046627 -0.94318945 100.25572888 -4.61379051 105.09047031 C-8.16016492 109.97566788 -7.53900804 116.24572497 -7 122 C-5.8367707 125.62789336 -4.34908511 128.77985866 -1.49804688 131.35839844 C1.70852055 134.87224449 1.60242279 139.68980338 1.79663086 144.25 C1.52884158 148.50908665 0.83056706 151.0960565 -2.09472656 154.27978516 C-7.91943806 158.97351582 -14.38458945 162.632999 -20.90966797 166.25878906 C-25.07475351 168.60555712 -29.02634882 171.22225512 -33 173.875 C-35.65949485 175.59457881 -38.32998458 177.29681392 -41 179 C-41.73847168 179.47260254 -42.47694336 179.94520508 -43.23779297 180.43212891 C-45.46746783 181.85628677 -47.70156938 183.27318835 -49.9375 184.6875 C-50.61876953 185.12239746 -51.30003906 185.55729492 -52.00195312 186.00537109 C-56.76886343 189 -56.76886343 189 -59 189 C-59 132.57 -59 76.14 -59 18 C-38.5637605 11.18792017 -38.5637605 11.18792017 -29.8125 8.4375 C-24.66393328 6.81471015 -19.51831486 5.19186442 -14.41015625 3.4453125 C-13.72139404 3.21013916 -13.03263184 2.97496582 -12.32299805 2.73266602 C-10.51287388 2.10993249 -8.70553308 1.47912448 -6.8984375 0.84765625 C-4 0 -4 0 0 0 Z " fill="#28CFD0" transform="translate(719,386)"/>
<path d="M0 0 C0 43.56 0 87.12 0 132 C-54 160 -54 160 -59 160 C-59 113.47 -59 66.94 -59 19 C-50.00183486 15.62568807 -50.00183486 15.62568807 -46.80859375 14.5703125 C-46.09920654 14.33489746 -45.38981934 14.09948242 -44.65893555 13.85693359 C-43.92586182 13.61539551 -43.19278809 13.37385742 -42.4375 13.125 C-40.84893378 12.5990325 -39.26039249 12.07298967 -37.671875 11.546875 C-36.49334961 11.15725586 -36.49334961 11.15725586 -35.29101562 10.75976562 C-33.17660102 10.0585659 -31.06435183 9.35135578 -28.953125 8.640625 C-21.86707432 6.25900631 -14.7629075 3.96784755 -7.609375 1.796875 C-1.7254902 0 -1.7254902 0 0 0 Z " fill="#24B5DE" transform="translate(643,453)"/>
<path d="M0 0 C0 33.66 0 67.32 0 102 C-6.18265683 105.09132842 -11.95743345 107.91185325 -18.38671875 110.2265625 C-19.50588432 110.63810074 -19.50588432 110.63810074 -20.6476593 111.05795288 C-22.99230582 111.91912756 -25.33969227 112.77248611 -27.6875 113.625 C-30.04547914 114.486053 -32.40282043 115.34880071 -34.75947571 116.21347046 C-36.21447742 116.74682224 -37.67030546 117.27792756 -39.12712097 117.80630493 C-42.32351761 118.9735337 -45.44177492 120.19349796 -48.56176758 121.56005859 C-52 123 -52 123 -59 125 C-59 90.35 -59 55.7 -59 20 C-47.7414966 15.49659864 -47.7414966 15.49659864 -43.07421875 13.88671875 C-41.52250977 13.35002563 -41.52250977 13.35002563 -39.93945312 12.80249023 C-38.32973633 12.25057007 -38.32973633 12.25057007 -36.6875 11.6875 C-35.00237305 11.10754272 -35.00237305 11.10754272 -33.28320312 10.51586914 C-25.86290558 7.96789148 -18.43654313 5.43767768 -11 2.9375 C-10.11658936 2.6386792 -9.23317871 2.3398584 -8.32299805 2.03198242 C-7.11123901 1.62749878 -7.11123901 1.62749878 -5.875 1.21484375 C-4.81925781 0.86087524 -4.81925781 0.86087524 -3.7421875 0.49975586 C-2 0 -2 0 0 0 Z " fill="#225DD6" transform="translate(567,519)"/>
<path d="M0 0 C7.57365998 4.49839415 14.48588876 9.5933193 21.41943359 15.00610352 C26.92841572 19.27288831 32.60258484 23.17781174 38.53027344 26.84106445 C40.0699275 27.81986858 41.54324939 28.9016058 43 30 C43 30.99 43 31.98 43 33 C44.5778125 32.01 44.5778125 32.01 46.1875 31 C51.91825099 28.13973213 57.7386036 28.19893362 64 29 C69.23872588 31.43226559 73.39841957 35.79683915 76 41 C76.7749869 47.57631738 76.54189516 52.84927284 72.53515625 58.2734375 C69.17279269 62.05502705 66.48731613 64.65604799 61.31640625 65.37109375 C53.02511364 65.56234473 47.83359562 63.63741937 41 59 C40.15824219 59.42667969 39.31648437 59.85335937 38.44921875 60.29296875 C29.40830789 64.8540252 20.30949817 69.29098778 11.1875 73.6875 C10.05594482 74.23365967 8.92438965 74.77981934 7.75854492 75.3425293 C2.45491142 77.89337429 -2.85855145 80.42204841 -8.19921875 82.89453125 C-9.51732544 83.50518433 -9.51732544 83.50518433 -10.86206055 84.12817383 C-13 85 -13 85 -15 85 C-14.9175 86.175625 -14.835 87.35125 -14.75 88.5625 C-14.75868209 93.46787888 -16.16445879 96.01491505 -19 100 C-23.22523345 104.01397177 -25.85470465 104.92472648 -31.5625 105.125 C-35 105 -35 105 -38 104 C-38.11609619 104.58088379 -38.23219238 105.16176758 -38.35180664 105.76025391 C-39.0462224 108.15971538 -39.97881471 109.76910768 -41.37109375 111.8359375 C-41.85803711 112.56385498 -42.34498047 113.29177246 -42.84667969 114.04174805 C-43.37165039 114.81172119 -43.89662109 115.58169434 -44.4375 116.375 C-44.97665039 117.17139893 -45.51580078 117.96779785 -46.07128906 118.78833008 C-47.17739371 120.41640024 -48.28693634 122.04213995 -49.39990234 123.66552734 C-50.41003825 125.13927156 -51.41612994 126.61580346 -52.41650391 128.09619141 C-57.25281235 135.24792495 -61.99524945 141.78467263 -69 147 C-70.10214844 147.82951172 -70.10214844 147.82951172 -71.2265625 148.67578125 C-71.81179688 149.11277344 -72.39703125 149.54976562 -73 150 C-72.7525 150.928125 -72.7525 150.928125 -72.5 151.875 C-71.57205448 157.67465948 -70.83037553 163.52941227 -73.6875 168.875 C-76.88221405 173.19218115 -79.67797815 175.98449053 -85 177 C-96.42483752 178.1138421 -96.42483752 178.1138421 -100.5 175 C-105.30142502 169.23828998 -107.86103809 164.11415858 -107.5078125 156.4609375 C-106.42912987 151.23347554 -103.33882514 147.67261435 -99.06640625 144.6171875 C-94.65243541 142.15637725 -91.09067383 141.4641396 -86 142 C-85.30003906 142.23332031 -84.60007812 142.46664062 -83.87890625 142.70703125 C-80.44174729 143.82098051 -78.1495128 144.49321657 -74.7421875 143.03125 C-68.43533155 138.548328 -64.44706262 132.32595051 -60.2890625 125.9375 C-57.36580075 121.54374901 -54.24011077 117.28569389 -51.16088867 113.00048828 C-48.16560727 108.78898355 -45.48967467 104.52990688 -43 100 C-43.66 100 -44.32 100 -45 100 C-48.49243036 94.61583654 -49.2517655 89.23238174 -48 83 C-45.33955828 78.50050977 -41.924961 74.91844411 -37 73 C-35.68 73 -34.36 73 -33 73 C-32.67 54.52 -32.34 36.04 -32 17 C-29.69 17 -27.38 17 -25 17 C-24.97046365 21.22915147 -24.95302416 25.45827572 -24.9375 29.6875 C-24.92912109 30.86634766 -24.92074219 32.04519531 -24.91210938 33.25976562 C-24.89028154 41.22692508 -25.31987267 49.06518117 -26 57 C-26.20869629 59.85996491 -26.3435038 62.69419168 -26.4375 65.5625 C-26.50614258 66.56893555 -26.50614258 66.56893555 -26.57617188 67.59570312 C-26.69282567 69.82451846 -26.69282567 69.82451846 -26 73 C-22.97448468 75.61700692 -20.02661136 77.66422988 -16 78 C-13.51181016 76.96105586 -11.25393272 75.8692902 -8.89453125 74.58984375 C-7.45529392 73.83967952 -6.01464458 73.09221947 -4.57275391 72.34716797 C-3.82270081 71.95793152 -3.07264771 71.56869507 -2.29986572 71.16766357 C1.45728494 69.26012266 5.28059406 67.50348142 9.11328125 65.75390625 C9.86954803 65.40806488 10.62581482 65.06222351 11.40499878 64.7059021 C12.93474254 64.00790987 14.46502634 63.31109999 15.99584961 62.61547852 C18.35754602 61.5420254 20.71697204 60.46369311 23.07617188 59.38476562 C24.58841437 58.69503334 26.10077936 58.00556954 27.61328125 57.31640625 C28.3131868 56.9966835 29.01309235 56.67696075 29.73420715 56.34754944 C32.46753353 55.10723411 35.14996574 53.95001142 38 53 C37.96519531 52.27554688 37.93039062 51.55109375 37.89453125 50.8046875 C37.73368051 45.06001832 37.76533816 40.98677034 41 36 C40.35417969 35.78988281 39.70835937 35.57976563 39.04296875 35.36328125 C34.78428051 33.45534518 31.13459967 30.84787079 27.3125 28.1875 C26.48758057 27.61725098 25.66266113 27.04700195 24.81274414 26.45947266 C22.2024135 24.64818235 19.59977168 22.82640965 17 21 C16.13793945 20.39462402 15.27587891 19.78924805 14.38769531 19.16552734 C11.89821438 17.41039121 9.41618373 15.64534413 6.9375 13.875 C6.17026611 13.33125732 5.40303223 12.78751465 4.61254883 12.22729492 C3.54943481 11.46122925 3.54943481 11.46122925 2.46484375 10.6796875 C1.842146 10.23351074 1.21944824 9.78733398 0.57788086 9.32763672 C-1 8 -1 8 -3 5 C-2.01 3.35 -1.02 1.7 0 0 Z " fill="#28BCE0" transform="translate(965,516)"/>
<path d="M0 0 C1.06076424 5.72674027 1.80236812 11.3541152 0 17 C-3.6842483 22.26470338 -9.31137427 25.77869477 -14.5625 29.33691406 C-16.91659668 30.94309461 -19.19544338 32.61785781 -21.46875 34.3359375 C-51.34122647 56.77429739 -85.5926564 75.99700265 -120.4453125 89.58203125 C-124.01728411 91.00689465 -127.46699593 92.59489817 -130.9375 94.25 C-135.44300772 96.36826109 -139.84093169 97.97650748 -144.6328125 99.30078125 C-147.01870665 100.00552556 -149.26329428 100.86417441 -151.5625 101.8125 C-163.15824835 106.53736169 -174.76715399 110.40929165 -186.96044922 113.26342773 C-190.97612081 114.20831584 -194.87551764 115.25550712 -198.77734375 116.6015625 C-201.8905579 117.67187885 -204.76242447 118.42558924 -208.0625 118.6875 C-209.361875 118.790625 -210.66125 118.89375 -212 119 C-212 114.38 -212 109.76 -212 105 C-205.36278241 102.19992383 -198.69662252 99.88888025 -191.79882812 97.83911133 C-187.38294636 96.50765939 -183.24028743 94.83027096 -179 93 C-176.6324973 92.20643841 -174.25710513 91.43608811 -171.875 90.6875 C-165.97302678 88.77066317 -160.42019127 86.47062834 -154.81640625 83.7890625 C-149.91443333 81.45837398 -144.92029457 79.33820214 -139.9375 77.1875 C-118.30964949 67.83495943 -118.30964949 67.83495943 -97.10961914 57.56201172 C-94.62517736 56.29136586 -92.16626193 55.06554974 -89.56884766 54.04150391 C-87.14628421 53.05930892 -84.90844491 51.95454047 -82.61328125 50.70703125 C-81.34846924 50.02012207 -81.34846924 50.02012207 -80.05810547 49.31933594 C-79.15205566 48.82208008 -78.24600586 48.32482422 -77.3125 47.8125 C-76.36004395 47.29075195 -75.40758789 46.76900391 -74.42626953 46.23144531 C-66.70066389 41.97755943 -59.02512642 37.63802001 -51.375 33.25 C-50.32223877 32.64905518 -49.26947754 32.04811035 -48.18481445 31.42895508 C-40.91962894 27.2362911 -33.92995334 22.72373772 -27 18 C-25.86304688 17.23260498 -25.86304688 17.23260498 -24.703125 16.44970703 C-22.73458335 15.11944727 -20.77200022 13.78103493 -18.8125 12.4375 C-17.79905518 11.74370239 -17.79905518 11.74370239 -16.76513672 11.03588867 C-12.2321313 7.90999689 -7.8525212 4.64869991 -3.6015625 1.14453125 C-2 0 -2 0 0 0 Z " fill="#239DDE" transform="translate(720,558)"/>
<path d="M0 0 C4.0698003 3.21852402 7.25586868 6.31113051 10.375 10.5 C11.24063161 11.65253442 12.10653718 12.80486311 12.97265625 13.95703125 C13.44848145 14.59463379 13.92430664 15.23223633 14.41455078 15.88916016 C16.17584947 18.23412296 17.95911914 20.56126553 19.74609375 22.88671875 C26.79624629 32.06974817 33.73622244 41.31294802 40.4699707 50.73071289 C44.43821371 56.26804271 48.55412312 61.66599805 52.78125 67.0078125 C55 70 55 70 55.88566589 72.00704956 C57.02711768 74.42916778 58.08019107 76.12074045 60 78 C64.01099144 79.19289437 67.92238009 79.07125329 72.08203125 79 C73.25134689 79.01087646 74.42066254 79.02175293 75.62541199 79.03295898 C79.35537678 79.05912751 83.08260774 79.03026379 86.8125 79 C89.34311316 79.00809071 91.87371758 79.01976682 94.40429688 79.03515625 C100.60336407 79.0650199 106.80108785 79.04972172 113 79 C113 81.31 113 83.62 113 86 C95.18 86 77.36 86 59 86 C58.67 87.65 58.34 89.3 58 91 C57.48382029 92.54968438 56.93034866 94.08731893 56.34521484 95.61230469 C56.00751068 96.49803162 55.66980652 97.38375854 55.3218689 98.29632568 C54.95526154 99.24525696 54.58865417 100.19418823 54.2109375 101.171875 C53.82942535 102.16769592 53.44791321 103.16351685 53.05484009 104.18951416 C52.24467151 106.30171215 51.43255943 108.41316555 50.61865234 110.52392578 C49.39612591 113.6951987 48.17994917 116.86884611 46.96484375 120.04296875 C43.18763945 129.88628904 39.34893011 139.69461818 35.2973175 149.4283905 C33.08201469 154.75975633 31.0194186 160.13170716 29.0625 165.5625 C28.76021484 166.39201172 28.45792969 167.22152344 28.14648438 168.07617188 C27.42782552 170.04963189 26.71338873 172.02462877 26 174 C23.37886292 174 21.49064888 173.68707555 19 173 C20.34602163 165.89882644 22.60145204 159.63424467 25.4375 153 C27.9679544 147.02267867 30.38811594 141.083294 32.38061523 134.90332031 C33.10186361 132.6869812 33.92822531 130.53117665 34.8125 128.375 C35.32490234 127.11236328 35.32490234 127.11236328 35.84765625 125.82421875 C36.41806641 124.42623047 36.41806641 124.42623047 37 123 C41.83659978 111.06009547 46.41218089 99.04302516 51 87 C26.25 86.67 1.5 86.34 -24 86 C-24 83.69 -24 81.38 -24 79 C1.08 79 26.16 79 52 79 C47.38 72.73 42.76 66.46 38 60 C33.921875 54.4453125 33.921875 54.4453125 32.30053711 52.2355957 C23.66613715 40.48242492 14.81429961 28.96885327 5.56347656 17.69458008 C1.73011791 12.98827265 -1.84130715 8.19237181 -5 3 C-3.35 2.01 -1.7 1.02 0 0 Z " fill="#34B8D6" transform="translate(792,420)"/>
<path d="M0 0 C7.23793064 3.31227334 12.75226207 8.75847625 15.91015625 16.09765625 C18.53816289 24.52370254 16.85917861 31.41438537 12.97265625 39.16015625 C9.71708523 44.88996125 4.03306989 47.97086807 -2.02734375 50.16015625 C-10.16955415 51.37977004 -17.6913293 51.01670389 -24.875 46.7734375 C-30.90148797 42.25630586 -35.58973222 36.6760902 -37.02734375 29.16015625 C-37.99409766 21.38666562 -37.7821317 15.41840186 -32.87890625 9.09765625 C-29.90152428 5.98208356 -26.69168843 3.42255529 -23.02734375 1.16015625 C-22.4446875 0.78632812 -21.86203125 0.4125 -21.26171875 0.02734375 C-15.04347199 -2.38603174 -6.35889819 -1.76408143 0 0 Z " fill="#4750F2" transform="translate(812.02734375,597.83984375)"/>
<path d="M0 0 C6.6354456 4.2982182 10.11415249 9.32695792 12 17 C13.33321376 25.26314781 10.3228523 31.44740236 5.875 38.25 C0.16240628 43.71422008 -5.56362775 46.28807854 -13.5 46.625 C-21.57410892 46.27312482 -27.93330715 43.60136626 -33.4375 37.625 C-38.39127262 31.09949216 -39.89796279 25.05706336 -39 17 C-37.75838745 10.9266859 -35.85103384 7.0425282 -31 3 C-30.236875 2.29875 -29.47375 1.5975 -28.6875 0.875 C-19.25250537 -5.7075544 -9.93894844 -5.31654861 0 0 Z " fill="#34A0EC" transform="translate(950,482)"/>
<path d="M0 0 C6.16903979 3.64153028 11.16976043 9.30281463 13.38671875 16.125 C14.25876205 23.47652783 13.99568762 30.11780462 9.38671875 36.125 C4.25303069 41.7584276 -1.20241783 45.44983075 -8.8359375 46.40234375 C-15.90906355 46.70565104 -21.67547597 44.85133966 -27.30078125 40.5625 C-32.37279482 35.86274431 -35.80569174 29.59501908 -36.17578125 22.625 C-35.66853733 15.26346008 -33.15377896 9.1162947 -27.67578125 4.125 C-20.26666931 -2.00261544 -9.06860906 -3.03642516 0 0 Z " fill="#2DCFDB" transform="translate(782.61328125,375.875)"/>
<path d="M0 0 C0.99 2.97 0.99 2.97 2 6 C-5.37274923 9.21048425 -12.78598908 12.07060108 -20.41967773 14.59228516 C-31.74073247 18.4432828 -42.28602237 24.09061866 -52.75 29.8125 C-55.02976307 31.04851808 -57.30971114 32.28419501 -59.58984375 33.51953125 C-60.68538574 34.11459473 -61.78092773 34.7096582 -62.90966797 35.32275391 C-81.10041546 45.195596 -98.82619144 53.42852303 -118.77441406 59.16235352 C-122.34549038 60.19292973 -125.86601631 61.29303028 -129.375 62.51953125 C-134.28099101 64.16855517 -139.22427671 65.20686571 -144.3125 66.125 C-145.25367676 66.29676758 -146.19485352 66.46853516 -147.16455078 66.64550781 C-156.74543072 68.29269632 -166.29438116 68.78946597 -176 69 C-175.505 68.01 -175.505 68.01 -175 67 C-172.71484375 66.3671875 -172.71484375 66.3671875 -169.9375 65.875 C-169.01839844 65.70742188 -168.09929688 65.53984375 -167.15234375 65.3671875 C-166.44207031 65.24601563 -165.73179687 65.12484375 -165 65 C-165 64.34 -165 63.68 -165 63 C-162.14732627 62.18193166 -159.29304815 61.37042204 -156.4375 60.5625 C-155.63763672 60.33240234 -154.83777344 60.10230469 -154.01367188 59.86523438 C-150.40171416 58.84798914 -146.97351301 57.99638939 -143.24609375 57.48828125 C-139.94266655 56.99137583 -137.60420766 56.10118397 -134.625 54.625 C-130.65543923 52.67020119 -126.70383998 51.20964013 -122.50830078 49.84423828 C-100.74550227 42.51936411 -79.71097559 32.50543857 -59.625 21.4375 C-43.27629485 12.49060325 -18.85595009 -0.66161228 0 0 Z " fill="#422AC1" transform="translate(771,631)"/>
<path d="M0 0 C5.27076676 3.13477122 9.15165837 7.35992711 11.51953125 13.05078125 C12.41631932 19.49213404 12.48056676 25.4514786 9.01953125 31.11328125 C4.97366474 36.33839321 -0.12643086 38.69276139 -6.48046875 40.05078125 C-12.83443912 40.58027878 -17.2178339 39.76941993 -22.48046875 36.05078125 C-27.76753815 31.11462353 -30.50026152 26.52002944 -30.85546875 19.23828125 C-30.7117948 12.81126643 -28.70218057 8.21402697 -24.10546875 3.73828125 C-23.23921875 3.18140625 -22.37296875 2.62453125 -21.48046875 2.05078125 C-20.65546875 1.47328125 -19.83046875 0.89578125 -18.98046875 0.30078125 C-12.93963068 -1.85666092 -6.07624782 -2.32524129 0 0 Z " fill="#6C2EF4" transform="translate(1004.48046875,389.94921875)"/>
<path d="M0 0 C5.81883197 4.96312138 5.81883197 4.96312138 6.51171875 9.1484375 C6.70273097 13.53513197 6.36607398 16.31249471 4.4375 20.3125 C2.01650001 22.92979728 0.41049622 23.63560583 -2.875 24.8125 C-3.0233192 33.06352252 -3.10513912 41.3115582 -3.10559464 49.5637846 C-3.10782092 53.39729863 -3.13164963 57.2279711 -3.20751953 61.06079102 C-4.44784812 79.92916507 -4.44784812 79.92916507 2.456604 96.539505 C4.05522263 98.06313497 5.68184455 99.42323239 7.44628906 100.74926758 C10.125 102.8125 10.125 102.8125 11.08886719 104.99487305 C11.125 106.8125 11.125 106.8125 9.6875 108.5625 C9.171875 108.975 8.65625 109.3875 8.125 109.8125 C4.39586332 108.29040339 2.31868821 106.07217803 -0.3125 103.0625 C-1.05371094 102.22203125 -1.79492188 101.3815625 -2.55859375 100.515625 C-3.32300781 99.62359375 -4.08742188 98.7315625 -4.875 97.8125 C-5.73770508 97.08111816 -6.60041016 96.34973633 -7.48925781 95.59619141 C-11.7515559 90.42189083 -10.47963626 82.91041532 -10.36328125 76.5703125 C-10.35394672 75.07674344 -10.34683363 73.58315898 -10.34184265 72.08956909 C-10.32282267 68.17322951 -10.27376712 64.25782859 -10.21832275 60.34185791 C-10.16702096 56.34001359 -10.14430544 52.33801643 -10.11914062 48.3359375 C-10.06564167 40.49436264 -9.98039172 32.65354834 -9.875 24.8125 C-10.64328125 24.69648438 -11.4115625 24.58046875 -12.203125 24.4609375 C-15.8967681 23.56452704 -17.43811777 21.65552927 -19.875 18.8125 C-21.32127785 14.47366646 -21.40376805 10.34686713 -20.875 5.8125 C-16.38994315 -1.87616888 -7.9774906 -3.29505047 0 0 Z " fill="#3BF3AC" transform="translate(740.875,269.1875)"/>
<path d="M0 0 C4.88062876 1.63875126 8.16687462 4.75031193 11 9 C12.59505115 13.78515346 12.59948605 17.58303297 10.625 22.25 C9.47234011 24.2006552 8.25681901 26.11477149 7 28 C7.5983667 28.26482178 8.1967334 28.52964355 8.81323242 28.80249023 C11.08221965 30.04502483 12.31821411 31.20589407 13.98828125 33.16015625 C14.52614258 33.78438477 15.06400391 34.40861328 15.61816406 35.05175781 C16.17729492 35.71530273 16.73642578 36.37884766 17.3125 37.0625 C18.18406738 38.0829541 18.18406738 38.0829541 19.07324219 39.12402344 C22.59312109 43.26702936 26.02653837 47.46075551 29.296875 51.8046875 C32.18207916 55.5236892 35.29386004 59.05968708 38.375 62.6171875 C38.91125 63.40351563 39.4475 64.18984375 40 65 C39.505 66.485 39.505 66.485 39 68 C36.4375 69.1875 36.4375 69.1875 34 70 C31.48344164 66.93070918 28.97050961 63.85847735 26.45947266 60.78466797 C25.45494054 59.55630902 24.44934506 58.32881915 23.44287109 57.10205078 C22.35198958 55.77226128 21.26258236 54.44126116 20.17456055 53.10913086 C19.05446712 51.74016408 17.92958501 50.37510202 16.80004883 49.01391602 C14.21057064 45.86434664 11.76775282 42.74611069 9.625 39.2734375 C7.59023675 36.07915843 5.88710805 33.4557011 3 31 C-0.52907287 30.62484516 -3.41819797 31.03633998 -6.90234375 31.66796875 C-11.0836886 32.1161583 -13.06751345 30.97000146 -16.4140625 28.6171875 C-20.23501762 24.72094262 -21.41647281 21.4191138 -21.375 16 C-21.38273438 14.989375 -21.39046875 13.97875 -21.3984375 12.9375 C-20.77286061 8.32540373 -18.88790132 5.77962068 -15.4375 2.75 C-10.50907816 -0.78835414 -5.93815851 -0.5905351 0 0 Z " fill="#39B3E9" transform="translate(880,411)"/>
<path d="M0 0 C4.73830602 1.93128975 7.73073483 3.87197758 10.5546875 8.27734375 C11.2146875 9.26734375 11.8746875 10.25734375 12.5546875 11.27734375 C13.46994279 18.31999237 13.5121329 24.88296239 9.08203125 30.6875 C4.34820262 35.61504028 0.67956966 36.53388956 -6.0078125 36.77734375 C-12.23351152 36.5634022 -15.52925011 35.33721195 -19.87109375 30.78125 C-24.58819225 25.45292183 -24.79278865 21.08924697 -24.7265625 14.2265625 C-24.22641895 8.98200171 -21.72128333 6.4257175 -17.9453125 3.02734375 C-12.08692525 -1.07352732 -6.96140234 -2.05728344 0 0 Z " fill="#31B0E7" transform="translate(748.4453125,483.72265625)"/>
<path d="M0 0 C8.22015571 7.43728374 8.22015571 7.43728374 8.625 13.375 C8.686875 14.14199219 8.74875 14.90898437 8.8125 15.69921875 C9.08863896 21.47224897 8.65819134 24.9172622 4.625 29.375 C-2.1090929 34.45992729 -8.0729262 35.4482719 -16.375 34.375 C-21.37579874 32.2651622 -24.42723845 28.91003386 -26.875 24.125 C-28.7138277 19.22695672 -29.36534338 14.54015296 -28.375 9.375 C-26.2191841 4.66577921 -23.09640771 1.55411125 -18.375 -0.625 C-12.32273845 -2.46020189 -5.72282726 -2.75543535 0 0 Z " fill="#27D6D6" transform="translate(905.375,332.625)"/>
<path d="M0 0 C1.32 0.66 2.64 1.32 4 2 C4 6.93525375 2.16652679 8.69163836 -0.9375 12.1875 C-1.43604492 12.76266357 -1.93458984 13.33782715 -2.44824219 13.93041992 C-6.12012416 18.12242667 -9.97973064 22.08889855 -13.97265625 25.9765625 C-15.81519531 27.81555139 -17.50716897 29.70127329 -19.1875 31.6875 C-26.99680811 40.77403139 -35.75227793 49.38515245 -45 57 C-45.83072021 57.69343506 -45.83072021 57.69343506 -46.67822266 58.40087891 C-58.12633561 67.946356 -69.68479863 77.15316519 -83 84 C-83.99 82.02 -84.98 80.04 -86 78 C-81.71333642 74.74213568 -77.39003858 71.55936197 -72.98803711 68.45849609 C-62.94499253 61.36912795 -53.61537292 53.67579485 -44.56640625 45.34765625 C-42.32441044 43.29675902 -40.05208971 41.29522467 -37.75 39.3125 C-33.98785224 36.04273967 -30.48813227 32.55737559 -27 29 C-26.21625 28.236875 -25.4325 27.47375 -24.625 26.6875 C-20.61411779 22.58112059 -16.82265474 18.28112549 -13 14 C-11.39704206 12.20725184 -9.79291238 10.41555054 -8.1875 8.625 C-7.47980469 7.83351563 -6.77210938 7.04203125 -6.04296875 6.2265625 C-4.08291821 4.09036975 -2.06595086 2.03345275 0 0 Z " fill="#3790E8" transform="translate(912,523)"/>
<path d="M0 0 C2.96621076 1.8231623 4.61719825 3.81025982 6 7 C6.40778019 10.97914542 6.19486498 14.52418944 3.62109375 17.703125 C2 19 2 19 -1 20 C-1.33 38.81 -1.66 57.62 -2 77 C-3.98 77 -5.96 77 -8 77 C-8 58.19 -8 39.38 -8 20 C-9.32 19.67 -10.64 19.34 -12 19 C-15.02753754 16.22475726 -16.28580741 14.04670995 -16.5 10 C-16.30170354 5.96542976 -14.92149301 3.83556675 -12 1 C-8.21486521 -0.89256739 -4.10228242 -0.74530017 0 0 Z " fill="#2FDDC7" transform="translate(773,291)"/>
<path d="M0 0 C4.88561259 1.32258447 7.89816351 3.31967009 11.75 6.5625 C16.66082696 10.39489473 19.6688196 11.68445662 25.8046875 11.79296875 C29.86884506 12.1762434 31.38147628 13.92323463 34 17 C34.20625 18.27875 34.4125 19.5575 34.625 20.875 C35.201411 24.18309791 35.88933447 24.91618232 38.640625 27 C41.71591866 28.78277893 44.80927625 30.43426023 48 32 C49.17949219 32.59167969 49.17949219 32.59167969 50.3828125 33.1953125 C50.91648437 33.46085937 51.45015625 33.72640625 52 34 C51.34 35.98 50.68 37.96 50 40 C45.43462274 39.46190765 42.6558616 37.63246839 38.9375 35 C33.755865 31.34083783 30.83891811 29.77138233 24.5625 30.25 C20.94659598 30.27973605 20.17221337 30.12091577 17.0625 27.9375 C15 25 15 25 14.37890625 21.6875 C12.46326247 16.56464524 9.39267205 14.88311908 4.875 12.0625 C4.12089844 11.56943359 3.36679687 11.07636719 2.58984375 10.56835938 C0.73728228 9.3606769 -1.12507755 8.17254325 -3 7 C-1.125 2.25 -1.125 2.25 0 0 Z " fill="#4F7EF3" transform="translate(918,360)"/>
<path d="M0 0 C4.0698003 3.21852402 7.25586868 6.31113051 10.375 10.5 C11.24063161 11.65253442 12.10653718 12.80486311 12.97265625 13.95703125 C13.44848145 14.59463379 13.92430664 15.23223633 14.41455078 15.88916016 C16.17584947 18.23412296 17.95911914 20.56126553 19.74609375 22.88671875 C26.86383101 32.1578592 33.88105023 41.48414952 40.66772461 51.00097656 C43.95524019 55.60234542 47.35219881 60.06478297 51.0234375 64.37109375 C51.50683594 65.17740234 51.50683594 65.17740234 52 66 C51.505 67.485 51.505 67.485 51 69 C50.01 68.01 49.02 67.02 48 66 C48 66.66 48 67.32 48 68 C47.01 68.33 46.02 68.66 45 69 C39.23689714 61.60357536 33.60230598 54.12745661 28.0625 46.5625 C21.182851 37.18360351 14.06265002 28.03061447 6.7578125 18.98046875 C6.21463379 18.3059668 5.67145508 17.63146484 5.11181641 16.93652344 C4.06776546 15.64165989 3.02074765 14.34918065 1.97021484 13.05957031 C-0.63623789 9.83135433 -2.96653428 6.63413299 -5 3 C-3.35 2.01 -1.7 1.02 0 0 Z " fill="#3AD7D4" transform="translate(792,420)"/>
<path d="M0 0 C0.495 2.97 0.495 2.97 1 6 C-5.71108433 9.50250021 -12.60381519 12.36656391 -19.625 15.1875 C-22.04046362 16.16381751 -24.4558268 17.14038355 -26.87109375 18.1171875 C-28.0710498 18.60155273 -29.27100586 19.08591797 -30.50732422 19.58496094 C-34.65905696 21.26701343 -38.80071562 22.97273681 -42.94165039 24.68115234 C-50.32552533 27.72346376 -57.72293241 30.72306396 -65.1875 33.5625 C-65.84129639 33.81427002 -66.49509277 34.06604004 -67.16870117 34.32543945 C-69.94496154 35.36508742 -72.0051951 36 -75 36 C-75.66 34.35 -76.32 32.7 -77 31 C-68.75775462 26.63113281 -60.21139579 23.14392896 -51.5625 19.6875 C-48.70097872 18.53724788 -45.84063925 17.38407494 -42.98046875 16.23046875 C-42.28407288 15.94996674 -41.587677 15.66946472 -40.87017822 15.38046265 C-35.34428458 13.1504667 -29.85348636 10.84403187 -24.375 8.5 C-4.41962213 0 -4.41962213 0 0 0 Z " fill="#30DFC2" transform="translate(875,354)"/>
<path d="M0 0 C2.92506517 1.57987864 5.05456187 3.29355225 7 6 C7.89963956 9.11834524 7.58476119 10.65091316 7 14 C5.20636089 16.8100346 3.98119065 18.50940468 1 20 C0.67 31.55 0.34 43.1 0 55 C-0.66 55 -1.32 55 -2 55 C-2 54.34 -2 53.68 -2 53 C-3.32 53 -4.64 53 -6 53 C-6.00410889 52.01604248 -6.00821777 51.03208496 -6.01245117 50.01831055 C-6.03422662 46.36689905 -6.0884972 42.71656767 -6.15258789 39.06567383 C-6.17578224 37.48570103 -6.19016704 35.9055733 -6.19555664 34.32543945 C-6.20483685 32.05321561 -6.24579747 29.78343285 -6.29296875 27.51171875 C-6.2890361 26.80536789 -6.28510345 26.09901703 -6.28105164 25.3712616 C-6.29350364 23.12532929 -6.29350364 23.12532929 -7 20 C-9.34927111 18.14966615 -9.34927111 18.14966615 -12 17 C-14.09501785 13.85747323 -14.60520729 11.83783164 -14.5078125 8.07421875 C-13.6813106 4.69827637 -11.73752276 3.08593216 -8.99609375 1.078125 C-5.67316812 -0.71664501 -3.67935467 -0.78843314 0 0 Z " fill="#2BD4CE" transform="translate(709,314)"/>
<path d="M0 0 C1.38348758 2.34926264 2.55320006 4.59784827 3.6875 7.0625 C4.38731517 8.52309908 5.08920879 9.98270379 5.79296875 11.44140625 C6.15438965 12.19566895 6.51581055 12.94993164 6.88818359 13.72705078 C8.66840251 17.36645309 10.58410271 20.93070234 12.5 24.5 C16.45970549 31.92127088 20.25000583 39.41624117 23.98095703 46.95458984 C25.06882736 49.1381494 26.17157143 51.31373619 27.27734375 53.48828125 C27.64915771 54.22232178 28.02097168 54.9563623 28.40405273 55.71264648 C29.12061003 57.12644643 29.84005683 58.53878656 30.56274414 59.94946289 C33 64.77543838 33 64.77543838 33 67 C30.03 67.495 30.03 67.495 27 68 C23.49569828 62.47807001 20.35267204 56.82898026 17.46875 50.9609375 C14.24461245 44.45699122 10.9535844 37.99014826 7.625 31.5390625 C7.16565063 30.64733337 6.70630127 29.75560425 6.23303223 28.83685303 C4.33534336 25.15300193 2.43695296 21.46953338 0.53271484 17.7890625 C-0.87768026 15.06176349 -2.28302191 12.33191218 -3.6875 9.6015625 C-4.12175293 8.76525299 -4.55600586 7.92894348 -5.00341797 7.06729126 C-5.39803223 6.29823456 -5.79264648 5.52917786 -6.19921875 4.73681641 C-6.54815186 4.06115631 -6.89708496 3.38549622 -7.2565918 2.68936157 C-8 1 -8 1 -8 -1 C-4.56011399 -2.22853072 -3.00217273 -2.10432668 0 0 Z " fill="#4F59EB" transform="translate(758,527)"/>
<path d="M0 0 C1.134375 0.020625 2.26875 0.04125 3.4375 0.0625 C3.9325 3.0325 3.9325 3.0325 4.4375 6.0625 C3.27734375 6.44341797 3.27734375 6.44341797 2.09375 6.83203125 C1.0521875 7.17621094 0.010625 7.52039063 -1.0625 7.875 C-2.0834375 8.21144531 -3.104375 8.54789062 -4.15625 8.89453125 C-6.54037415 9.71202336 -8.90946388 10.57409407 -11.265625 11.46899414 C-15.37881065 13.01609382 -19.53088798 14.39693983 -23.71875 15.7265625 C-24.4653186 15.96410248 -25.21188721 16.20164246 -25.9810791 16.44638062 C-27.54705574 16.94334552 -29.11342673 17.43906937 -30.68017578 17.93359375 C-33.05843634 18.68621402 -35.4334646 19.44850191 -37.80859375 20.2109375 C-39.34095586 20.69591317 -40.87350201 21.18030778 -42.40625 21.6640625 C-43.45504333 22.00312119 -43.45504333 22.00312119 -44.52502441 22.34902954 C-49.2045192 23.80964191 -53.68275836 24.57302396 -58.5625 25.0625 C-58.8925 23.4125 -59.2225 21.7625 -59.5625 20.0625 C-48.46507263 15.20608393 -37.16206322 11.3142959 -25.5 8.0625 C-17.6365193 5.86323884 -7.70605373 0.13519393 0 0 Z " fill="#3E6EE4" transform="translate(951.5625,399.9375)"/>
<path d="M0 0 C0.495 2.475 0.495 2.475 1 5 C-32.56874329 23.31778029 -32.56874329 23.31778029 -51 23 C-51 22.01 -51 21.02 -51 20 C-53.64 19.67 -56.28 19.34 -59 19 C-58.67 18.34 -58.34 17.68 -58 17 C-56.00073242 16.44091797 -56.00073242 16.44091797 -53.35546875 15.9921875 C-52.37779541 15.81421631 -51.40012207 15.63624512 -50.39282227 15.45288086 C-49.33506592 15.26218018 -48.27730957 15.07147949 -47.1875 14.875 C-34.54343283 12.43352392 -23.20968366 8.22892703 -11.54467773 2.87255859 C-10.34693726 2.32656006 -10.34693726 2.32656006 -9.125 1.76953125 C-8.40699219 1.43671143 -7.68898438 1.1038916 -6.94921875 0.76098633 C-4.55504337 -0.17371365 -2.54455391 -0.32832954 0 0 Z " fill="#1E7BB8" transform="translate(916,609)"/>
<path d="M0 0 C13.05955122 2.62495349 25.67024684 6.21815875 38.37841797 10.19238281 C43.0780724 11.64018099 47.81229788 12.95877987 52.55078125 14.2734375 C55 15 55 15 57 16 C56.505 18.475 56.505 18.475 56 21 C50.71117402 21.22465506 46.21414588 20.47194949 41.1875 18.953125 C40.45611816 18.74065125 39.72473633 18.52817749 38.97119141 18.30926514 C36.64479058 17.63159759 34.32237101 16.94133746 32 16.25 C28.95923081 15.35630186 25.91704963 14.46745304 22.875 13.578125 C22.13483643 13.36063599 21.39467285 13.14314697 20.63208008 12.91906738 C13.45450907 10.81822849 6.23666271 8.88654887 -1 7 C-0.67 4.69 -0.34 2.38 0 0 Z " fill="#41D9D8" transform="translate(801,403)"/>
<path d="M0 0 C1.98 0.66 3.96 1.32 6 2 C4.58804903 7.08147189 2.34962355 10.80106972 -0.625 15.0625 C-1.53308268 16.39328254 -2.43930486 17.72533635 -3.34375 19.05859375 C-3.79363281 19.72101074 -4.24351562 20.38342773 -4.70703125 21.06591797 C-7.96650671 25.94159105 -10.95736407 30.98753005 -14 36 C-15.49672571 38.43951936 -16.99832101 40.8760275 -18.5 43.3125 C-19.1703125 44.40175781 -19.840625 45.49101562 -20.53125 46.61328125 C-21.0159375 47.40089844 -21.500625 48.18851562 -22 49 C-23.65 48.34 -25.3 47.68 -27 47 C-27 42.31833472 -25.90972222 40.62397119 -23.5625 36.625 C-23.20341553 36.01140625 -22.84433105 35.3978125 -22.47436523 34.765625 C-18.87522695 28.67250382 -15.04847833 22.72903796 -11.17626953 16.80712891 C-9.92954508 14.89175854 -8.69570321 12.96856953 -7.46484375 11.04296875 C-7.05226318 10.39779297 -6.63968262 9.75261719 -6.21459961 9.08789062 C-5.4192536 7.84347387 -4.62447267 6.59869572 -3.83032227 5.35351562 C-1.11143134 1.11143134 -1.11143134 1.11143134 0 0 Z " fill="#4F5AF1" transform="translate(978,430)"/>
<path d="M0 0 C2.31 0.33 4.62 0.66 7 1 C5.71506206 8.19858388 3.88022283 15.09116183 1.6875 22.0625 C-0.98394066 30.62215208 -0.98394066 30.62215208 -3.46484375 39.23828125 C-3.68422607 40.0264624 -3.9036084 40.81464355 -4.12963867 41.62670898 C-4.53437476 43.09353884 -4.92953633 44.56305413 -5.3137207 46.03540039 C-5.859375 47.9921875 -5.859375 47.9921875 -7 51 C-10 52 -10 52 -12.1875 51.0625 C-13.0846875 50.5365625 -13.0846875 50.5365625 -14 50 C-9.89262676 33.15747508 -5.28640038 16.51156545 0 0 Z " fill="#36D3CA" transform="translate(760,426)"/>
<path d="M0 0 C2.31 0 4.62 0 7 0 C7.29569112 18.80368096 6.53983803 37.26598652 5 56 C3.02 56 1.04 56 -1 56 C-0.67 37.52 -0.34 19.04 0 0 Z " fill="#33B0D4" transform="translate(933,533)"/>
<path d="M0 0 C6.77631508 4.02480917 13.03651483 8.47947628 19.25 13.3125 C26.92062754 19.27739267 34.83619378 24.73571156 43 30 C42.67 32.31 42.34 34.62 42 37 C34.76463758 33.30534685 28.22017923 29.15977756 21.73291016 24.28222656 C19.66672206 22.75339874 17.57519246 21.26292253 15.48046875 19.7734375 C14.68068604 19.20310791 13.88090332 18.63277832 13.05688477 18.04516602 C11.46705707 16.9124477 9.87517742 15.78260247 8.28100586 14.65600586 C4.15041906 11.69851831 0.4644237 8.71976967 -3 5 C-2.01 3.35 -1.02 1.7 0 0 Z " fill="#33ABE2" transform="translate(965,516)"/>
<path d="M0 0 C-0.2784375 0.8971875 -0.2784375 0.8971875 -0.5625 1.8125 C-1.22093687 4.16408762 -1.22093687 4.16408762 0 7 C-3.72996467 8.74437316 -7.46131957 10.48573052 -11.19384766 12.22460938 C-12.45657934 12.81335204 -13.71896408 13.40283955 -14.98095703 13.99316406 C-18.68178629 15.72395891 -22.38882738 17.44011514 -26.1060791 19.13537598 C-27.39085564 19.7219098 -28.67426405 20.31144798 -29.9564209 20.90368652 C-31.85889518 21.77878434 -33.76799164 22.63745539 -35.6796875 23.4921875 C-36.79843262 23.99862793 -37.91717773 24.50506836 -39.06982422 25.02685547 C-42.01241377 26.00412275 -43.18151263 26.15329039 -46 25 C-46 23.35 -46 21.7 -46 20 C-36.18232479 14.95768947 -26.24868709 10.17280204 -16.25 5.5 C-15.10740723 4.95956055 -13.96481445 4.41912109 -12.78759766 3.86230469 C-11.70784668 3.36118164 -10.6280957 2.86005859 -9.515625 2.34375 C-8.54915039 1.89193359 -7.58267578 1.44011719 -6.58691406 0.97460938 C-4 0 -4 0 0 0 Z " fill="#2BCADD" transform="translate(995,574)"/>
<path d="M0 0 C2.06604212 1.30209346 3.40523717 2.56859265 4.98754883 4.42016602 C5.52541016 5.04439453 6.06327148 5.66862305 6.61743164 6.31176758 C7.1765625 6.9753125 7.73569336 7.63885742 8.31176758 8.32250977 C8.8928125 9.0028125 9.47385742 9.68311523 10.07250977 10.3840332 C13.59238867 14.52703912 17.02580595 18.72076527 20.29614258 23.06469727 C23.18134674 26.78369896 26.29312761 30.31969685 29.37426758 33.87719727 C29.91051758 34.66352539 30.44676758 35.44985352 30.99926758 36.26000977 C30.66926758 37.25000977 30.33926758 38.24000977 29.99926758 39.26000977 C27.43676758 40.44750977 27.43676758 40.44750977 24.99926758 41.26000977 C22.48401515 38.19231171 19.97277043 35.12136645 17.46313477 32.04907227 C15.90779493 30.14821664 14.34801517 28.25105112 12.78833008 26.35375977 C-5.00073242 4.66276506 -5.00073242 4.66276506 -5.00073242 0.26000977 C-2.00073242 -0.73999023 -2.00073242 -0.73999023 0 0 Z " fill="#3DC1E5" transform="translate(889.000732421875,439.739990234375)"/>
<path d="M0 0 C1.32 0 2.64 0 4 0 C4.01030746 0.61593018 4.02061493 1.23186035 4.03123474 1.86645508 C4.14057292 8.35701448 4.25504395 14.84746981 4.37231445 21.33789062 C4.41526119 23.7506286 4.45695865 26.16338918 4.49731445 28.57617188 C2.89486697 49.80973424 2.89486697 49.80973424 7 69 C8.05450249 65.52711409 8.15544791 62.29035153 8.20532227 58.67089844 C8.22526749 57.38987244 8.24521271 56.10884644 8.26576233 54.78900146 C8.28274409 53.39579386 8.29962299 52.00258501 8.31640625 50.609375 C8.33698794 49.18019017 8.35798473 47.75101127 8.37937927 46.32183838 C8.43447449 42.5670655 8.48393888 38.81223882 8.53222656 35.05737305 C8.58253345 31.22309605 8.63817148 27.3888968 8.69335938 23.5546875 C8.80078736 16.03652425 8.90226616 8.51829618 9 1 C9.33 1 9.66 1 10 1 C9.98588074 1.785457 9.97176147 2.570914 9.95721436 3.38017273 C9.83400467 10.83782627 9.76981707 18.29269438 9.76940536 25.7512846 C9.76717908 29.58479863 9.74335037 33.4154711 9.66748047 37.24829102 C8.42715188 56.11666507 8.42715188 56.11666507 15.331604 72.727005 C16.93022263 74.25063497 18.55684455 75.61073239 20.32128906 76.93676758 C23 79 23 79 23.96386719 81.18237305 C24 83 24 83 22.5625 84.75 C22.046875 85.1625 21.53125 85.575 21 86 C17.27086332 84.47790339 15.19368821 82.25967803 12.5625 79.25 C11.82128906 78.40953125 11.08007812 77.5690625 10.31640625 76.703125 C9.16978516 75.36507812 9.16978516 75.36507812 8 74 C7.13729492 73.26861816 6.27458984 72.53723633 5.38574219 71.78369141 C1.1234441 66.60939083 2.39536374 59.09791532 2.51171875 52.7578125 C2.52105328 51.26424344 2.52816637 49.77065898 2.53315735 48.27706909 C2.55217733 44.36072951 2.60123288 40.44532859 2.65667725 36.52935791 C2.70797904 32.52751359 2.73069456 28.52551643 2.75585938 24.5234375 C2.80935833 16.68186264 2.89460828 8.84104834 3 1 C2.01 0.67 1.02 0.34 0 0 Z " fill="#32D0A1" transform="translate(728,293)"/>
<path d="M0 0 C0.33 0 0.66 0 1 0 C1 2.31 1 4.62 1 7 C3.51083114 5.74458443 3.87125446 4.49936512 5 2 C5.99 3.485 5.99 3.485 7 5 C6.14302836 7.629275 5.20109519 9.99418176 4.0625 12.5 C3.40291714 14.01808753 2.74679872 15.53768394 2.09375 17.05859375 C1.74957031 17.85765137 1.40539062 18.65670898 1.05078125 19.47998047 C-0.74668967 23.79073671 -2.34202063 28.17378884 -3.9375 32.5625 C-4.24357178 33.40167969 -4.54964355 34.24085938 -4.86499023 35.10546875 C-5.57946336 37.06929491 -6.29017253 39.03448989 -7 41 C-9.62113708 41 -11.50935112 40.68707555 -14 40 C-12.65397837 32.89882644 -10.39854796 26.63424467 -7.5625 20 C-4.76988928 13.40342526 -2.1434763 6.83886088 0 0 Z " fill="#427EED" transform="translate(825,553)"/>
<path d="M0 0 C0.66 0.33 1.32 0.66 2 1 C1.57847656 1.39832031 1.15695312 1.79664063 0.72265625 2.20703125 C0.17480469 2.73683594 -0.37304688 3.26664063 -0.9375 3.8125 C-1.75541016 4.59560547 -1.75541016 4.59560547 -2.58984375 5.39453125 C-4.23519092 7.05812198 -4.23519092 7.05812198 -5 10 C-3.68 10 -2.36 10 -1 10 C-1 10.66 -1 11.32 -1 12 C-2.56958008 13.40112305 -2.56958008 13.40112305 -4.76953125 15.01171875 C-5.57156982 15.60194824 -6.3736084 16.19217773 -7.19995117 16.80029297 C-8.06209229 17.42307129 -8.9242334 18.04584961 -9.8125 18.6875 C-10.67657471 19.3180127 -11.54064941 19.94852539 -12.4309082 20.59814453 C-18.47613557 24.97913772 -24.58905807 29.16784145 -31 33 C-32.32 31.35 -33.64 29.7 -35 28 C-31.02420803 23.72797255 -26.68471467 20.53199839 -21.875 17.25 C-14.24543357 11.96010163 -6.5855369 6.5855369 0 0 Z " fill="#455CF3" transform="translate(861,574)"/>
<path d="M0 0 C3.82502432 1.71563591 7.11990413 4.11631691 10.5 6.5625 C11.10859863 6.99997559 11.71719727 7.43745117 12.34423828 7.88818359 C18.2904334 12.17777338 24.15774293 16.57015673 30 21 C29.67 22.98 29.34 24.96 29 27 C25.89810281 26.39024731 23.8370064 25.39858986 21.27734375 23.55859375 C20.57859131 23.06069336 19.87983887 22.56279297 19.15991211 22.04980469 C18.42651611 21.51774414 17.69312012 20.98568359 16.9375 20.4375 C16.1854126 19.89899414 15.4333252 19.36048828 14.65844727 18.80566406 C12.43412042 17.21037009 10.21615972 15.60661395 8 14 C7.38382813 13.55479004 6.76765625 13.10958008 6.1328125 12.65087891 C3.08033683 10.44504323 0.03552034 8.22910781 -3 6 C-2 4 -1 2 0 0 Z " fill="#399CED" transform="translate(831,639)"/>
<path d="M0 0 C2.6875 0.875 2.6875 0.875 5 2 C4.42257164 7.40106771 3.09469181 12.01336319 1.125 17.0625 C0.86847656 17.74376953 0.61195313 18.42503906 0.34765625 19.12695312 C-1.21438513 23.21259402 -2.97604809 27.11570907 -5 31 C-6.98 31 -8.96 31 -11 31 C-10.47861573 24.05995256 -8.97045694 18.09973433 -6.625 11.5625 C-6.16867187 10.21768555 -6.16867187 10.21768555 -5.703125 8.84570312 C-5.40148437 7.99041016 -5.09984375 7.13511719 -4.7890625 6.25390625 C-4.51787598 5.48377197 -4.24668945 4.7136377 -3.96728516 3.92016602 C-3 2 -3 2 0 0 Z " fill="#125262" transform="translate(888,376)"/>
<path d="M0 0 C0.33 0 0.66 0 1 0 C1.07657284 6.91927943 1.12881775 13.83844806 1.16479492 20.75805664 C1.1798061 23.10803308 1.20022135 25.45798186 1.22631836 27.80786133 C1.26304034 31.20140442 1.27980365 34.5945745 1.29296875 37.98828125 C1.30845261 39.02519608 1.32393646 40.0621109 1.33988953 41.13044739 C1.34145294 48.03151823 0.60756058 54.54785661 -2 61 C-2.99 61.495 -2.99 61.495 -4 62 C-3.67 42.53 -3.34 23.06 -3 3 C-2.01 4.485 -2.01 4.485 -1 6 C-0.67 4.02 -0.34 2.04 0 0 Z " fill="#030D18" transform="translate(992,453)"/>
<path d="M0 0 C1.32 0 2.64 0 4 0 C5.79894196 2.11835209 7.29586544 4.13034504 8.8125 6.4375 C9.6882176 7.7252433 10.56582884 9.01170085 11.4453125 10.296875 C11.87489258 10.92916016 12.30447266 11.56144531 12.74707031 12.21289062 C14.95610841 15.36373997 17.43244464 18.29609153 19.91796875 21.23046875 C20.27503906 21.81441406 20.63210938 22.39835937 21 23 C20.67 23.99 20.34 24.98 20 26 C19.01 25.01 18.02 24.02 17 23 C17 23.66 17 24.32 17 25 C16.01 25.33 15.02 25.66 14 26 C11.06052727 22.20437016 8.13274948 18.40029604 5.21826172 14.58544922 C4.23047326 13.29993854 3.22865176 12.02521926 2.22265625 10.75390625 C0.23636063 8.16884325 -0.94849933 6.39483849 -1.375 3.125 C-1 1 -1 1 0 0 Z " fill="#3DCFE2" transform="translate(823,463)"/>
<path d="M0 0 C6.93 0 13.86 0 21 0 C21 0.33 21 0.66 21 1 C23.31 1.33 25.62 1.66 28 2 C28.33 2.99 28.66 3.98 29 5 C30.485 5.99 30.485 5.99 32 7 C27.96151684 7.02481344 23.92306353 7.0429136 19.88452148 7.05493164 C18.51211778 7.05994454 17.13971938 7.06675658 15.76733398 7.07543945 C13.78892349 7.08763857 11.8104732 7.09272248 9.83203125 7.09765625 C8.04889526 7.10551147 8.04889526 7.10551147 6.22973633 7.11352539 C3.35262513 7.01239479 0.79326587 6.66550193 -2 6 C-1.34 4.02 -0.68 2.04 0 0 Z " fill="#0B2245" transform="translate(837,626)"/>
<path d="M0 0 C-0.495 0.433125 -0.99 0.86625 -1.5 1.3125 C-3.33218192 2.99740483 -3.33218192 2.99740483 -3 6 C-5.99620429 6.99104523 -8.99753869 7.96559215 -12 8.9375 C-12.83917969 9.21529297 -13.67835938 9.49308594 -14.54296875 9.77929688 C-19.72416241 11.44611499 -24.57762586 12.50420422 -30 13 C-30.33 11.35 -30.66 9.7 -31 8 C-24.294867 4.90141581 -17.58770833 2.44025344 -10.4375 0.625 C-9.74720703 0.44549805 -9.05691406 0.26599609 -8.34570312 0.08105469 C-5.04004387 -0.72165485 -3.29183523 -1.09727841 0 0 Z " fill="#4D92ED" transform="translate(923,412)"/>
<path d="M0 0 C5.3120724 1.42200092 9.03913019 3.89346446 13.375 7.125 C14.01566406 7.59292969 14.65632812 8.06085938 15.31640625 8.54296875 C16.88265681 9.68843557 18.44204685 10.84327314 20 12 C19.35546875 12.74636719 18.7109375 13.49273437 18.046875 14.26171875 C15.59222048 17.54552184 15.31643852 19.96540888 15 24 C14.67 24 14.34 24 14 24 C14.00128906 23.13117188 14.00257813 22.26234375 14.00390625 21.3671875 C12.51387231 16.3694861 9.21596203 14.81411021 4.9375 12.125 C3.79958008 11.37863281 3.79958008 11.37863281 2.63867188 10.6171875 C0.76925227 9.39442248 -1.1095956 8.18996049 -3 7 C-1.125 2.25 -1.125 2.25 0 0 Z " fill="#1A537B" transform="translate(918,360)"/>
<path d="M0 0 C0.33 0 0.66 0 1 0 C1.04511719 0.91265625 1.09023438 1.8253125 1.13671875 2.765625 C1.70439911 6.18398233 1.70439911 6.18398233 4.58203125 8.046875 C6.18111328 8.88992188 6.18111328 8.88992188 7.8125 9.75 C9.39998047 10.60851562 9.39998047 10.60851562 11.01953125 11.484375 C13.3420105 12.66539983 15.66392977 13.84610575 18 15 C17.34 16.98 16.68 18.96 16 21 C11.45384653 20.44332815 8.47125476 18.64750318 4.6875 16.125 C3.61886719 15.42632812 2.55023437 14.72765625 1.44921875 14.0078125 C0.64097656 13.34523438 -0.16726563 12.68265625 -1 12 C-1 9.37165722 -0.80210238 6.91813299 -0.5 4.3125 C-0.4071875 3.50425781 -0.314375 2.69601562 -0.21875 1.86328125 C-0.1465625 1.24839844 -0.074375 0.63351562 0 0 Z " fill="#2B49A1" transform="translate(952,379)"/>
<path d="M0 0 C0.33 0 0.66 0 1 0 C1.33 3.3 1.66 6.6 2 10 C2.77923828 9.00806641 2.77923828 9.00806641 3.57421875 7.99609375 C4.27160156 7.15175781 4.96898437 6.30742188 5.6875 5.4375 C6.37199219 4.59058594 7.05648437 3.74367188 7.76171875 2.87109375 C10 1 10 1 12.76953125 1.22265625 C13.50558594 1.47917969 14.24164062 1.73570312 15 2 C14.52207339 6.66188061 12.72323415 8.87180734 9.5625 12.25 C8.75941406 13.12140625 7.95632813 13.9928125 7.12890625 14.890625 C5 17 5 17 3 18 C2.01 17.34 1.02 16.68 0 16 C-0.22107787 13.2114711 -0.28107535 10.65346819 -0.1875 7.875 C-0.17396484 7.12089844 -0.16042969 6.36679687 -0.14648438 5.58984375 C-0.11109985 3.72625873 -0.05729167 1.86304022 0 0 Z " fill="#0C3F57" transform="translate(938,573)"/>
<path d="M0 0 C0.33 0 0.66 0 1 0 C1 10.89 1 21.78 1 33 C2.32 33 3.64 33 5 33 C5 33.66 5 34.32 5 35 C5.66 35 6.32 35 7 35 C7 23.45 7 11.9 7 0 C7.33 0 7.66 0 8 0 C8 12.87 8 25.74 8 39 C2 41 2 41 0 41 C0 27.47 0 13.94 0 0 Z " fill="#08505A" transform="translate(702,334)"/>
<path d="M0 0 C0.66 0 1.32 0 2 0 C2 0.99 2 1.98 2 3 C2.99 3.33 3.98 3.66 5 4 C3.53967505 9.31027254 1.01679014 13.46330032 -2 18 C-4.475 17.01 -4.475 17.01 -7 16 C-7 11.38807067 -5.94343698 9.66768534 -3.625 5.75 C-2.68527344 4.13351562 -2.68527344 4.13351562 -1.7265625 2.484375 C-1.15679688 1.66453125 -0.58703125 0.8446875 0 0 Z " fill="#3E72E8" transform="translate(958,461)"/>
<path d="M0 0 C1.77388086 1.09926403 3.54399684 2.20460502 5.3125 3.3125 C6.79169922 4.23482422 6.79169922 4.23482422 8.30078125 5.17578125 C10.50172035 6.66324661 12.23328988 8.0403386 14 10 C12.35 11.65 10.7 13.3 9 15 C7.15830774 13.74131097 5.32682969 12.46766474 3.5 11.1875 C2.4790625 10.47980469 1.458125 9.77210938 0.40625 9.04296875 C-0.3878125 8.36878906 -1.181875 7.69460938 -2 7 C-2 3.89448334 -1.4606285 2.64738916 0 0 Z " fill="#359FD8" transform="translate(965,516)"/>
<path d="M0 0 C0.33 0 0.66 0 1 0 C1 2.31 1 4.62 1 7 C3.51083114 5.74458443 3.87125446 4.49936512 5 2 C5.99 3.485 5.99 3.485 7 5 C6.20352383 7.52613711 5.34972564 9.73743775 4.25 12.125 C3.9715625 12.77082031 3.693125 13.41664063 3.40625 14.08203125 C1.28348214 18.85825893 1.28348214 18.85825893 -1 20 C-1.33 19.01 -1.66 18.02 -2 17 C-2.99 17.33 -3.98 17.66 -5 18 C-4.42934122 11.58008874 -2.32655091 5.98410537 0 0 Z " fill="#3992E8" transform="translate(825,553)"/>
<path d="M0 0 C-0.99 0.33 -1.98 0.66 -3 1 C-3.33 1.99 -3.66 2.98 -4 4 C-2.68 3.67 -1.36 3.34 0 3 C0 3.66 0 4.32 0 5 C-9.9470536 7.5035281 -19.82766893 7.18974296 -30 7 C-27.12657801 5.08438534 -25.47254952 4.4902873 -22.18359375 3.74609375 C-21.25482422 3.53146484 -20.32605469 3.31683594 -19.36914062 3.09570312 C-17.91797852 2.76989258 -17.91797852 2.76989258 -16.4375 2.4375 C-14.51904018 2.00084989 -12.60104591 1.56214772 -10.68359375 1.12109375 C-9.83337646 0.9295874 -8.98315918 0.73808105 -8.10717773 0.54077148 C-2.76627188 -0.82988156 -2.76627188 -0.82988156 0 0 Z " fill="#0C1D4E" transform="translate(592,674)"/>
<path d="M0 0 C0.66 1.98 1.32 3.96 2 6 C0.12855305 6.82065069 -1.74734336 7.6311584 -3.625 8.4375 C-5.19121094 9.11619141 -5.19121094 9.11619141 -6.7890625 9.80859375 C-9.88685251 10.95801705 -12.73210054 11.57311223 -16 12 C-13.82575883 9.49962266 -12.26954202 8.56371414 -9 8 C-9.94729537 5.84188612 -9.94729537 5.84188612 -12 4 C-11.01 3.67 -10.02 3.34 -9 3 C-9 2.34 -9 1.68 -9 1 C-6.04335481 -0.4783226 -3.25770263 -0.06032783 0 0 Z " fill="#5630D7" transform="translate(771,631)"/>
<path d="M0 0 C0.33 1.65 0.66 3.3 1 5 C-1.43123269 6.36663387 -3.86886163 7.7183867 -6.3125 9.0625 C-7.00279297 9.45244141 -7.69308594 9.84238281 -8.40429688 10.24414062 C-10.22925688 11.24037483 -12.11273877 12.12752842 -14 13 C-14.99 12.67 -15.98 12.34 -17 12 C-15.35 11.34 -13.7 10.68 -12 10 C-12 7.69 -12 5.38 -12 3 C-4.71428571 -0.42857143 -4.71428571 -0.42857143 0 0 Z " fill="#2295C2" transform="translate(916,609)"/>
<path d="M0 0 C-0.64874084 0.67508102 -1.29748169 1.35016205 -1.96588135 2.04570007 C-4.49855652 5.72409026 -4.51523408 7.83013249 -4.54589844 12.26879883 C-4.55623611 12.98153961 -4.56657379 13.6942804 -4.57722473 14.42861938 C-4.60659407 16.77165555 -4.60815057 19.11382569 -4.609375 21.45703125 C-4.62436072 23.08657981 -4.6410887 24.7161132 -4.65948486 26.34562683 C-4.70312706 30.62487495 -4.72315039 34.9039182 -4.73822021 39.18334961 C-4.75780269 43.55399677 -4.79977139 47.92442304 -4.83984375 52.29492188 C-4.91511189 60.8632234 -4.96542374 69.4314381 -5 78 C-5.33 78 -5.66 78 -6 78 C-6 52.26 -6 26.52 -6 0 C-3 -1 -3 -1 0 0 Z " fill="#34EBDB" transform="translate(667,404)"/>
<path d="M0 0 C-2.95183101 2.95183101 -5.95511947 3.08663988 -10 4 C-7.525 4.495 -7.525 4.495 -5 5 C-5 5.33 -5 5.66 -5 6 C-11.53686384 6.98831156 -17.89577115 7.11883529 -24.5 7.0625 C-25.51320313 7.05798828 -26.52640625 7.05347656 -27.5703125 7.04882812 C-30.04693827 7.03714593 -32.52343657 7.02076582 -35 7 C-35 6.67 -35 6.34 -35 6 C-33.865625 5.855625 -32.73125 5.71125 -31.5625 5.5625 C-28.19222799 5.38828522 -28.19222799 5.38828522 -27 4 C-25.27460337 3.81482115 -23.54402373 3.67700022 -21.8125 3.5625 C-17.56662231 3.21645822 -13.99958696 2.52365218 -10 1 C-6.59086473 0.16850359 -3.50704723 -0.10020135 0 0 Z " fill="#19165E" transform="translate(606,695)"/>
<path d="M0 0 C0.6875 2.0625 0.6875 2.0625 1 4 C-0.24556092 4.81928886 -1.49666635 5.63015186 -2.75 6.4375 C-3.44609375 6.88996094 -4.1421875 7.34242188 -4.859375 7.80859375 C-6.97002908 8.98331911 -8.60033901 9.72272825 -11 10 C-13 8 -13 8 -13.1875 5.625 C-11.48001592 1.8505615 -8.92270978 1.17874587 -5.2265625 -0.3984375 C-3 -1 -3 -1 0 0 Z " fill="#28C0DA" transform="translate(1006,570)"/>
<path d="M0 0 C-1.98 0.99 -1.98 0.99 -4 2 C-4 2.99 -4 3.98 -4 5 C-1.69 5.33 0.62 5.66 3 6 C3 6.33 3 6.66 3 7 C-1.76307437 7.95261487 -6.1666528 8.08333357 -11 8 C-11 7.01 -11 6.02 -11 5 C-13.64 4.67 -16.28 4.34 -19 4 C-18.67 3.34 -18.34 2.68 -18 2 C-15.34156341 1.33171085 -12.75588514 0.78506455 -10.0625 0.3125 C-9.32064453 0.17005859 -8.57878906 0.02761719 -7.81445312 -0.11914062 C-2.26194975 -1.13097488 -2.26194975 -1.13097488 0 0 Z " fill="#154B87" transform="translate(876,624)"/>
<path d="M0 0 C0.66 0 1.32 0 2 0 C7.74031891 10.37357631 7.74031891 10.37357631 7 16 C5.02 16.99 5.02 16.99 3 18 C1.09923392 14.7053388 0.51511586 11.75298697 0 8 C-0.20625 6.741875 -0.4125 5.48375 -0.625 4.1875 C-0.74875 3.135625 -0.8725 2.08375 -1 1 C-0.67 0.67 -0.34 0.34 0 0 Z " fill="#051116" transform="translate(838,465)"/>
<path d="M0 0 C0 0.66 0 1.32 0 2 C-1.12019531 2.34933594 -2.24039063 2.69867187 -3.39453125 3.05859375 C-4.86719222 3.51821405 -6.33984821 3.9778503 -7.8125 4.4375 C-8.55048828 4.66759766 -9.28847656 4.89769531 -10.04882812 5.13476562 C-13.04018411 6.0687184 -16.02697312 7.00899104 -19 8 C-19 11.3 -19 14.6 -19 18 C-17.906875 17.79375 -16.81375 17.5875 -15.6875 17.375 C-12 17 -12 17 -9 19 C-13.29 19.66 -17.58 20.32 -22 21 C-22 16.38 -22 11.76 -22 7 C-4.86206897 0 -4.86206897 0 0 0 Z " fill="#205ABB" transform="translate(530,656)"/>
<path d="M0 0 C1.98 0.66 3.96 1.32 6 2 C4.58795406 7.26308032 2.31008693 10.7562988 -1 15 C-1.33 15 -1.66 15 -2 15 C-2.12375 14.195625 -2.2475 13.39125 -2.375 12.5625 C-2.684375 11.2940625 -2.684375 11.2940625 -3 10 C-3.66 9.67 -4.32 9.34 -5 9 C-3.7508258 5.54074837 -2.32472205 2.85306797 0 0 Z " fill="#5E3AED" transform="translate(978,430)"/>
<path d="M0 0 C0.33 0 0.66 0 1 0 C1.57374185 6.88490225 0.4753869 11.02667877 -3 17 C-4.98 16.01 -6.96 15.02 -9 14 C-3.78593041 4.19156581 -3.78593041 4.19156581 0 0 Z " fill="#02151B" transform="translate(957,560)"/>
<path d="M0 0 C0.33 0 0.66 0 1 0 C1.07460234 4.42908378 1.12881371 8.8578269 1.16479492 13.28735352 C1.17980722 14.79165017 1.20022353 16.29590361 1.22631836 17.80004883 C1.26303816 19.97227696 1.27980161 22.14392251 1.29296875 24.31640625 C1.31653442 26.27235718 1.31653442 26.27235718 1.34057617 28.26782227 C0.95200103 32.52599297 -0.13159476 35.19207376 -2 39 C-2.33 39 -2.66 39 -3 39 C-2.68932522 34.56237028 -2.37612233 30.1249223 -2.0625 25.6875 C-1.97548828 24.44419922 -1.88847656 23.20089844 -1.79882812 21.91992188 C-1.28042043 14.60461328 -0.70068959 7.30018593 0 0 Z " fill="#0A1C2C" transform="translate(991,476)"/>
<path d="M0 0 C0.33 1.98 0.66 3.96 1 6 C-3.455 7.485 -3.455 7.485 -8 9 C-8 7.02 -8 5.04 -8 3 C-8.99 2.67 -9.98 2.34 -11 2 C-7.36576791 -0.32590854 -4.22911669 -0.16265833 0 0 Z " fill="#233BA0" transform="translate(955,400)"/>
<path d="M0 0 C3.43595166 1.52708963 6.11912454 3.59927045 9 6 C7.35 7.32 5.7 8.64 4 10 C0.535 8.02 0.535 8.02 -3 6 C-2 4 -1 2 0 0 Z " fill="#386CDF" transform="translate(831,639)"/>
<path d="M0 0 C2.64 1.32 5.28 2.64 8 4 C7.34 5.98 6.68 7.96 6 10 C1.59885603 9.49701212 -0.71195019 7.91227269 -4 5 C-2.68 4.67 -1.36 4.34 0 4 C0 2.68 0 1.36 0 0 Z " fill="#1A3077" transform="translate(962,390)"/>
<path d="M0 0 C0.33 0 0.66 0 1 0 C1 3.63 1 7.26 1 11 C1.78375 10.525625 2.5675 10.05125 3.375 9.5625 C4.88948678 8.66101977 6.4235897 7.78820515 8 7 C7.50769231 14.50769231 7.50769231 14.50769231 4.9375 17 C4.298125 17.33 3.65875 17.66 3 18 C2.01 17.34 1.02 16.68 0 16 C-0.22107787 13.2114711 -0.28107535 10.65346819 -0.1875 7.875 C-0.17396484 7.12089844 -0.16042969 6.36679687 -0.14648438 5.58984375 C-0.11109985 3.72625873 -0.05729167 1.86304022 0 0 Z " fill="#125973" transform="translate(938,573)"/>
<path d="M0 0 C2.6875 0.875 2.6875 0.875 5 2 C4.25 8.75 4.25 8.75 2 11 C2 9.68 2 8.36 2 7 C1.01 6.67 0.02 6.34 -1 6 C-1 6.66 -1 7.32 -1 8 C-2.66666667 9.66666667 -4.33333333 11.33333333 -6 13 C-5.57674417 11.20491499 -5.13589265 9.4139717 -4.6875 7.625 C-4.44386719 6.62726563 -4.20023438 5.62953125 -3.94921875 4.6015625 C-3 2 -3 2 0 0 Z " fill="#072D34" transform="translate(888,376)"/>
<path d="M0 0 C-0.5625 1.9375 -0.5625 1.9375 -2 4 C-4.9375 4.5 -4.9375 4.5 -6.81640625 4.65625 C-9.51765829 5.08149182 -11.83105396 6.00097491 -14.375 7 C-19.33346751 8.89285897 -23.71538327 9.65346776 -29 10 C-26.77696873 7.77696873 -25.57843759 7.4151023 -22.60546875 6.5625 C-21.73212891 6.30726563 -20.85878906 6.05203125 -19.95898438 5.7890625 C-19.04439453 5.52867187 -18.12980469 5.26828125 -17.1875 5 C-11.9328963 3.48475382 -5.35791608 0 0 0 Z " fill="#34D8A5" transform="translate(717,386)"/>
<path d="M0 0 C6.44541485 6.26637555 6.44541485 6.26637555 9 10 C8.67 10.99 8.34 11.98 8 13 C7.01 13.33 6.02 13.66 5 14 C5 13.34 5 12.68 5 12 C4.34 12 3.68 12 3 12 C0.97649676 8.96474514 0.67875982 7.80573798 0.375 4.3125 C0.30023437 3.50425781 0.22546875 2.69601562 0.1484375 1.86328125 C0.09945312 1.24839844 0.05046875 0.63351562 0 0 Z " fill="#33B0DC" transform="translate(911,466)"/>
<path d="M0 0 C0.33 0 0.66 0 1 0 C1 3.96 1 7.92 1 12 C0.34 12 -0.32 12 -1 12 C-1 11.34 -1 10.68 -1 10 C-2.32 10 -3.64 10 -5 10 C-5 8.02 -5 6.04 -5 4 C-4.0409375 3.8453125 -4.0409375 3.8453125 -3.0625 3.6875 C-2.381875 3.460625 -1.70125 3.23375 -1 3 C-0.67 2.01 -0.34 1.02 0 0 Z " fill="#1C8AAE" transform="translate(708,357)"/>
<path d="M0 0 C-0.33 2.31 -0.66 4.62 -1 7 C-4 8 -4 8 -6.1875 7.0625 C-6.785625 6.711875 -7.38375 6.36125 -8 6 C-7.67 4.02 -7.34 2.04 -7 0 C-3.86650268 -1.04449911 -3.01031744 -0.93423645 0 0 Z " fill="#2BC5CF" transform="translate(754,470)"/>
<path d="M0 0 C-2.80606953 2.31276507 -5.11687414 3.51761683 -8.625 4.4375 C-13.2297629 5.72191458 -17.56765157 7.37114394 -21.96875 9.23046875 C-24 10 -24 10 -26 10 C-26 9.34 -26 8.68 -26 8 C-25.43490723 7.79318604 -24.86981445 7.58637207 -24.28759766 7.37329102 C-21.73295385 6.43756929 -19.17897086 5.50005683 -16.625 4.5625 C-15.73554687 4.23701172 -14.84609375 3.91152344 -13.9296875 3.57617188 C-13.07890625 3.26357422 -12.228125 2.95097656 -11.3515625 2.62890625 C-10.56604004 2.34088135 -9.78051758 2.05285645 -8.97119141 1.75610352 C-5.63733309 0.47731243 -3.64824559 -0.09600646 0 0 Z " fill="#237BD4" transform="translate(587,652)"/>
<path d="M0 0 C0.66 0 1.32 0 2 0 C2.16225719 2.75236274 2.2809328 5.49517476 2.375 8.25 C2.42527344 9.02730469 2.47554687 9.80460938 2.52734375 10.60546875 C2.58580565 12.88548296 2.56911642 14.78864035 2 17 C-1.0234375 19.546875 -1.0234375 19.546875 -4 21 C-3 19 -2 17 -1 15 C-0.76827173 12.45384991 -0.58105471 9.92603775 -0.4375 7.375 C-0.39431641 6.66859375 -0.35113281 5.9621875 -0.30664062 5.234375 C-0.20055249 3.48981463 -0.09977111 1.74493303 0 0 Z " fill="#21B3BB" transform="translate(718,558)"/>
<path d="M0 0 C-0.99 0.33 -1.98 0.66 -3 1 C-3.33 1.99 -3.66 2.98 -4 4 C-2.68 3.67 -1.36 3.34 0 3 C0 3.66 0 4.32 0 5 C-1.58294782 5.05437607 -3.16644256 5.09296271 -4.75 5.125 C-5.63171875 5.14820313 -6.5134375 5.17140625 -7.421875 5.1953125 C-10.1135858 4.99139502 -11.69904974 4.36551721 -14 3 C-12.42274653 2.29866401 -10.83788667 1.614417 -9.25 0.9375 C-7.92742188 0.36322266 -7.92742188 0.36322266 -6.578125 -0.22265625 C-3.84743691 -1.04600008 -2.63098653 -0.9773992 0 0 Z " fill="#102A6D" transform="translate(592,674)"/>
<path d="M0 0 C2.00720923 0.28674418 4.0085944 0.61866701 6 1 C5.49396008 3.16874252 5.00016187 4.99967627 4 7 C3.01 7 2.02 7 1 7 C1 6.34 1 5.68 1 5 C0.01 5 -0.98 5 -2 5 C-1.125 1.125 -1.125 1.125 0 0 Z " fill="#39D2E7" transform="translate(921,619)"/>
<path d="M0 0 C0 1.98 0 3.96 0 6 C-1.98 6.66 -3.96 7.32 -6 8 C-5.67 6.02 -5.34 4.04 -5 2 C-6.32 1.67 -7.64 1.34 -9 1 C-5.92677456 0.08941469 -3.19902639 -0.08886184 0 0 Z " fill="#2F50BF" transform="translate(947,403)"/>
<path d="M0 0 C0.33 0 0.66 0 1 0 C1.66 3.63 2.32 7.26 3 11 C4.093125 10.79375 5.18625 10.5875 6.3125 10.375 C10 10 10 10 13 12 C8.71 12.66 4.42 13.32 0 14 C0 9.38 0 4.76 0 0 Z " fill="#153F98" transform="translate(508,663)"/>
<path d="M0 0 C0.99 0.33 1.98 0.66 3 1 C0.81855776 2.15879664 -1.36903017 3.30187378 -3.5625 4.4375 C-4.47612305 4.92573242 -4.47612305 4.92573242 -5.40820312 5.42382812 C-9.65560614 7.60371221 -13.24162667 8.56519369 -18 9 C-14.83907143 6.38879813 -11.67178851 4.89558115 -7.875 3.375 C-3.89015431 1.79231447 -3.89015431 1.79231447 0 0 Z " fill="#1A508B" transform="translate(660,647)"/>
<path d="M0 0 C0.6875 2.0625 0.6875 2.0625 1 4 C-0.98 5.32 -2.96 6.64 -5 8 C-5.625 6.125 -5.625 6.125 -6 4 C-5.34 3.34 -4.68 2.68 -4 2 C-4.66 1.34 -5.32 0.68 -6 0 C-3 -1 -3 -1 0 0 Z " fill="#20A9C5" transform="translate(1006,570)"/>
<path d="M0 0 C0 0.66 0 1.32 0 2 C0.99 2 1.98 2 3 2 C3 3.32 3 4.64 3 6 C1.02 6.33 -0.96 6.66 -3 7 C-3.66 5.35 -4.32 3.7 -5 2 C-2 0 -2 0 0 0 Z " fill="#30DDB9" transform="translate(803,383)"/>
<path d="M0 0 C-0.309375 0.680625 -0.61875 1.36125 -0.9375 2.0625 C-2.13491647 5.37300435 -2.54839156 8.51616346 -3 12 C-3.33 12.99 -3.66 13.98 -4 15 C-6 13 -6 13 -6.375 9.1875 C-6.30270863 5.88016988 -5.96995307 4.95192491 -4.125 2 C-2 0 -2 0 0 0 Z " fill="#28D4B6" transform="translate(763,292)"/>
<path d="M0 0 C0.66 0.33 1.32 0.66 2 1 C-9.05491329 9.74566474 -9.05491329 9.74566474 -13 12 C-13.99 11.67 -14.98 11.34 -16 11 C-10.72 7.37 -5.44 3.74 0 0 Z " fill="#2EC5CB" transform="translate(706,567)"/>
<path d="M0 0 C-0.639375 0.4125 -1.27875 0.825 -1.9375 1.25 C-4.20990931 3.17810487 -4.60196439 4.11424181 -5 7 C-6.32 6.34 -7.64 5.68 -9 5 C-8.01 4.01 -7.02 3.02 -6 2 C-10.455 2.495 -10.455 2.495 -15 3 C-12.41464321 1.27642881 -10.96188386 0.55264982 -8.0625 -0.1875 C-7.39347656 -0.36667969 -6.72445312 -0.54585938 -6.03515625 -0.73046875 C-3.75319112 -1.03268678 -2.17973341 -0.68756692 0 0 Z " fill="#4576D7" transform="translate(928,410)"/>
<path d="M0 0 C0.763125 0.20625 1.52625 0.4125 2.3125 0.625 C2.3125 1.615 2.3125 2.605 2.3125 3.625 C3.9625 3.295 5.6125 2.965 7.3125 2.625 C4.69051226 4.77877564 2.66845828 6.02572174 -0.6875 6.625 C-0.6875 4.975 -0.6875 3.325 -0.6875 1.625 C-2.3375 1.625 -3.9875 1.625 -5.6875 1.625 C-2.6875 -0.375 -2.6875 -0.375 0 0 Z " fill="#34D7B3" transform="translate(813.6875,379.375)"/>
<path d="M0 0 C1.32 0 2.64 0 4 0 C4 0.66 4 1.32 4 2 C4.66 2 5.32 2 6 2 C6 3.32 6 4.64 6 6 C4.02 6 2.04 6 0 6 C0 4.02 0 2.04 0 0 Z " fill="#117192" transform="translate(703,367)"/>
<path d="M0 0 C0.98484375 0.01804687 1.9696875 0.03609375 2.984375 0.0546875 C4.10585938 0.08949219 4.10585938 0.08949219 5.25 0.125 C5.25 0.455 5.25 0.785 5.25 1.125 C1.95 1.125 -1.35 1.125 -4.75 1.125 C-5.41 2.445 -6.07 3.765 -6.75 5.125 C-8.875 5.875 -8.875 5.875 -10.75 6.125 C-10.5 4.25 -10.5 4.25 -9.75 2.125 C-6.51286374 -0.03309084 -3.82462761 -0.09106256 0 0 Z " fill="#30A5C5" transform="translate(874.75,410.875)"/>
<path d="M0 0 C1.98 0.66 3.96 1.32 6 2 C6 3.65 6 5.3 6 7 C5.05125 6.649375 4.1025 6.29875 3.125 5.9375 C0.12939828 4.64973223 0.12939828 4.64973223 -2 6 C-1.34 4.02 -0.68 2.04 0 0 Z " fill="#031315" transform="translate(888,372)"/>
<path d="M0 0 C0.7425 0.391875 1.485 0.78375 2.25 1.1875 C0.6 2.8375 -1.05 4.4875 -2.75 6.1875 C-4.07 5.5275 -5.39 4.8675 -6.75 4.1875 C-6.75 2.1875 -6.75 2.1875 -5.0625 0.4375 C-2.75 -0.8125 -2.75 -0.8125 0 0 Z " fill="#4082E9" transform="translate(841.75,645.8125)"/>
<path d="M0 0 C0.66 0.33 1.32 0.66 2 1 C-2.26311718 5.12989477 -5.28758534 5.61271765 -11 6 C-7.57874946 3.12614955 -4.16111563 1.54115394 0 0 Z " fill="#1976C0" transform="translate(599,627)"/>
<path d="M0 0 C0.66 0.33 1.32 0.66 2 1 C-1.3 4.3 -4.6 7.6 -8 11 C-8.99 10.34 -9.98 9.68 -11 9 C-10.37351562 8.51789062 -9.74703125 8.03578125 -9.1015625 7.5390625 C-7.87566406 6.59160156 -7.87566406 6.59160156 -6.625 5.625 C-5.81289063 4.99851562 -5.00078125 4.37203125 -4.1640625 3.7265625 C-1.95776805 2.03226506 -1.95776805 2.03226506 0 0 Z " fill="#3A68D8" transform="translate(861,574)"/>
<path d="M0 0 C1.32 0.66 2.64 1.32 4 2 C4 2.99 4 3.98 4 5 C3.2575 4.79375 2.515 4.5875 1.75 4.375 C-1.32330841 3.95591249 -2.42786866 4.38050989 -5 6 C-3.35 4.02 -1.7 2.04 0 0 Z " fill="#2B9AD7" transform="translate(912,523)"/>
<path d="M0 0 C0.33 0 0.66 0 1 0 C2.47075246 4.41225737 3.36884358 7.48281619 2 12 C0.68 11.67 -0.64 11.34 -2 11 C-1.67 10.34 -1.34 9.68 -1 9 C-0.77532169 7.46331135 -0.59203195 5.92031946 -0.4375 4.375 C-0.35371094 3.55773437 -0.26992188 2.74046875 -0.18359375 1.8984375 C-0.12300781 1.27195312 -0.06242188 0.64546875 0 0 Z " fill="#3151B8" transform="translate(952,379)"/>
<path d="M0 0 C0.99 0.33 1.98 0.66 3 1 C2.566875 1.37125 2.13375 1.7425 1.6875 2.125 C-0.46152985 4.51281095 -1.64757984 7.1019568 -3 10 C-3.33 10 -3.66 10 -4 10 C-3.38461538 3.47692308 -3.38461538 3.47692308 -1.4375 1.0625 C-0.7259375 0.5365625 -0.7259375 0.5365625 0 0 Z " fill="#33C1E4" transform="translate(729,488)"/>
<path d="M0 0 C-0.66 0.7425 -1.32 1.485 -2 2.25 C-4.39211447 4.97242945 -4.39211447 4.97242945 -4 9 C-4.66 9 -5.32 9 -6 9 C-6 6.03 -6 3.06 -6 0 C-3 -1 -3 -1 0 0 Z " fill="#2EF6C7" transform="translate(667,404)"/>
<path d="M0 0 C0.99 0.33 1.98 0.66 3 1 C2.34 2.98 1.68 4.96 1 7 C-0.65 6.67 -2.3 6.34 -4 6 C-2.68 4.02 -1.36 2.04 0 0 Z " fill="#102052" transform="translate(967,393)"/>
<path d="M0 0 C1.65 0.33 3.3 0.66 5 1 C4.67 2.65 4.34 4.3 4 6 C3.67 5.34 3.34 4.68 3 4 C1.35 4 -0.3 4 -2 4 C-1.34 2.68 -0.68 1.36 0 0 Z " fill="#072C3B" transform="translate(948,574)"/>
<path d="M0 0 C2.31 0 4.62 0 7 0 C7.33 1.98 7.66 3.96 8 6 C7.01 6.33 6.02 6.66 5 7 C4.67 5.02 4.34 3.04 4 1 C2.68 0.67 1.36 0.34 0 0 Z " fill="#131F57" transform="translate(948,400)"/>
<path d="M0 0 C0.66 0.33 1.32 0.66 2 1 C0.76446724 2.20254524 -0.48902339 3.38666232 -1.75 4.5625 C-2.79414062 5.55443359 -2.79414062 5.55443359 -3.859375 6.56640625 C-4.56578125 7.03949219 -5.2721875 7.51257813 -6 8 C-7.32 7.67 -8.64 7.34 -10 7 C-6.7 4.69 -3.4 2.38 0 0 Z " fill="#4554DC" transform="translate(838,592)"/>
<path d="M0 0 C0.33 0 0.66 0 1 0 C0.67 3.3 0.34 6.6 0 10 C-0.99 10.33 -1.98 10.66 -3 11 C-2.69078116 9.54096742 -2.37751201 8.08279278 -2.0625 6.625 C-1.88847656 5.81289063 -1.71445312 5.00078125 -1.53515625 4.1640625 C-1 2 -1 2 0 0 Z " fill="#3486C8" transform="translate(825,553)"/>
<path d="M0 0 C1.32 0.66 2.64 1.32 4 2 C2.37660195 3.70884005 0.70680947 5.37446717 -1 7 C-1.66 7 -2.32 7 -3 7 C-1.125 2.25 -1.125 2.25 0 0 Z " fill="#0E384F" transform="translate(918,360)"/>
<path d="M0 0 C0.66 0.33 1.32 0.66 2 1 C1.2884375 1.8353125 1.2884375 1.8353125 0.5625 2.6875 C-1.12395996 5.18346074 -1.58953107 7.0446237 -2 10 C-2.99 9.67 -3.98 9.34 -5 9 C-3.7508258 5.54074837 -2.32472205 2.85306797 0 0 Z " fill="#5538D3" transform="translate(978,430)"/>
<path d="M0 0 C-0.33 0.66 -0.66 1.32 -1 2 C-2.32 1.67 -3.64 1.34 -5 1 C-5 1.66 -5 2.32 -5 3 C-5.66 3 -6.32 3 -7 3 C-7.33 1.68 -7.66 0.36 -8 -1 C-4.59745511 -2.2151946 -3.06748874 -1.86240388 0 0 Z " fill="#3D65C8" transform="translate(758,527)"/>
<path d="M0 0 C3 3.75 3 3.75 3 6 C3.66 6 4.32 6 5 6 C5 6.99 5 7.98 5 9 C4.34 9 3.68 9 3 9 C-0.22265625 3.7265625 -0.22265625 3.7265625 -1 2 C-0.67 1.34 -0.34 0.68 0 0 Z " fill="#30BFEA" transform="translate(911,472)"/>
<path d="M0 0 C2.31 0.33 4.62 0.66 7 1 C6.67 3.31 6.34 5.62 6 8 C5.67 8 5.34 8 5 8 C4.67 6.35 4.34 4.7 4 3 C2.68 2.67 1.36 2.34 0 2 C0 1.34 0 0.68 0 0 Z " fill="#29AB98" transform="translate(760,426)"/>
<path d="M0 0 C0.66 0.33 1.32 0.66 2 1 C1.01 2.485 1.01 2.485 0 4 C-0.39387788 6.32387947 -0.73486085 8.65793749 -1 11 C-1.33 11 -1.66 11 -2 11 C-2.96891192 5.62694301 -2.96891192 5.62694301 -3 3 C-1.5625 1 -1.5625 1 0 0 Z " fill="#2A65AF" transform="translate(934,373)"/>
<path d="M0 0 C0.99 0.33 1.98 0.66 3 1 C2.38125 1.5775 1.7625 2.155 1.125 2.75 C-0.81347053 4.80249821 -1.90014249 6.43366582 -3 9 C-3.36923077 3.46153846 -3.36923077 3.46153846 -1.5 1.125 C-1.005 0.75375 -0.51 0.3825 0 0 Z " fill="#2DE9D0" transform="translate(699,316)"/>
<path d="M0 0 C0.99 0.33 1.98 0.66 3 1 C-0.465 3.97 -0.465 3.97 -4 7 C-2.92598892 4.08482708 -2.22189824 2.22189824 0 0 Z " fill="#30C2E7" transform="translate(864,662)"/>
<path d="M0 0 C0.66 0.33 1.32 0.66 2 1 C0.9375 2.5 0.9375 2.5 -1 4 C-4.6875 4.1875 -4.6875 4.1875 -8 4 C-6.66666667 3.33333333 -5.33333333 2.66666667 -4 2 C-3.29875 1.608125 -2.5975 1.21625 -1.875 0.8125 C-1.25625 0.544375 -0.6375 0.27625 0 0 Z " fill="#1B5FB0" transform="translate(538,652)"/>
<path d="M0 0 C-2.76223278 2.76223278 -5.20706617 2.57856291 -9 3 C-7 0 -7 0 -4.5 -0.75 C-2 -1 -2 -1 0 0 Z " fill="#17579A" transform="translate(876,624)"/>
<path d="M0 0 C0.66 0 1.32 0 2 0 C0.55746343 3.36591866 -1.33264727 5.51047079 -4 8 C-4.66 7.67 -5.32 7.34 -6 7 C-5.04882866 5.8274869 -4.08882991 4.66212985 -3.125 3.5 C-2.59132813 2.8503125 -2.05765625 2.200625 -1.5078125 1.53125 C-0.76144531 0.77328125 -0.76144531 0.77328125 0 0 Z " fill="#2B8FD6" transform="translate(902,533)"/>
<path d="M0 0 C2 3 2 3 3 6 C1.02 5.34 -0.96 4.68 -3 4 C-3 3.34 -3 2.68 -3 2 C-2.01 1.34 -1.02 0.68 0 0 Z " fill="#1DB7C0" transform="translate(749,472)"/>
<path d="M0 0 C-1.33333333 0.66666667 -2.66666667 1.33333333 -4 2 C-4.70125 2.391875 -5.4025 2.78375 -6.125 3.1875 C-7.053125 3.5896875 -7.053125 3.5896875 -8 4 C-8.66 3.67 -9.32 3.34 -10 3 C-10 2.34 -10 1.68 -10 1 C-6.61981469 -0.04005702 -3.5219721 -0.08004482 0 0 Z " fill="#2CD3CE" transform="translate(626,460)"/>
<path d="M0 0 C0 3 0 3 -1.3125 4.38671875 C-2.875 5.59114583 -4.4375 6.79557292 -6 8 C-4.73058503 4.08597051 -3.48832306 2.20927127 0 0 Z " fill="#2ACFBC" transform="translate(884,334)"/>
</svg>
